<svg xmlns="http://www.w3.org/2000/svg" width="800" height="520" viewBox="0 0 800 520">
  <rect x="0" y="0" width="800" height="520" fill="#ffffff" />
  <polyline fill="none" stroke="#1f77b4" stroke-width="3" points="146.32,418.33 143.30,415.13 140.50,411.94 137.92,408.74 135.57,405.54 133.45,402.34 131.55,399.14 129.89,395.94 128.47,392.74 127.29,389.55 126.35,386.35 125.66,383.15 125.21,379.95 125.00,376.75 125.04,373.55 125.32,370.35 125.86,367.15 126.63,363.96 127.65,360.76 128.91,357.56 130.40,354.36 132.14,351.16 134.11,347.96 136.31,344.76 138.73,341.57 141.38,338.37 144.25,335.17 147.34,331.97 150.63,328.77 154.14,325.57 157.84,322.37 161.74,319.18 165.83,315.98 170.11,312.78 174.58,309.58 179.22,306.38 184.03,303.18 189.01,299.98 194.15,296.78 199.45,293.59 204.90,290.39 210.49,287.19 216.23,283.99 222.11,280.79 228.12,277.59 234.26,274.39 240.53,271.20 246.91,268.00 253.42,264.80 260.03,261.60 266.75,258.40 273.58,255.20 280.50,252.00 287.53,248.80 294.65,245.61 301.86,242.41 309.15,239.21 316.53,236.01 324.00,232.81 331.54,229.61 339.15,226.41 346.84,223.22 354.60,220.02 362.43,216.82 370.32,213.62 378.28,210.42 386.30,207.22 394.38,204.02 402.51,200.82 410.70,197.63 418.94,194.43 427.24,191.23 435.58,188.03 443.97,184.83 452.41,181.63 460.90,178.43 469.42,175.24 477.99,172.04 486.60,168.84 495.25,165.64 503.94,162.44 512.66,159.24 521.42,156.04 530.22,152.85 539.04,149.65 547.90,146.45 556.80,143.25 565.72,140.05 574.67,136.85 583.65,133.65 592.66,130.45 601.70,127.26 610.76,124.06 619.84,120.86 628.96,117.66 638.09,114.46 647.25,111.26 656.43,108.06 665.64,104.87 674.86,101.67" />
  <circle cx="124.99" cy="375.67" r="7" fill="#d62828" />
  <text x="134.99" y="380.67" font-size="16" fill="#d62828">Minimum Variance</text>
  <circle cx="305.62" cy="418.33" r="6" fill="#2b8a3e" /><text x="313.62" y="410.33" font-size="16" fill="#2b8a3e">005930.KS</text><circle cx="245.37" cy="365.96" r="6" fill="#2b8a3e" /><text x="253.37" y="357.96" font-size="16" fill="#2b8a3e">AAPL</text><circle cx="675.00" cy="101.67" r="6" fill="#2b8a3e" /><text x="683.00" y="93.67" font-size="16" fill="#2b8a3e">NVDA</text>
  <line x1="70" y1="450" x2="730" y2="450" stroke="#333" stroke-width="2" /><line x1="70" y1="450" x2="70" y2="70" stroke="#333" stroke-width="2" /><text x="400.00" y="500" font-size="18" text-anchor="middle">Annualized Risk (Volatility)</text><text x="25" y="260.00" font-size="18" transform="rotate(-90 25,260.00)" text-anchor="middle">Annualized Return</text><line x1="70.00" y1="450" x2="70.00" y2="458" stroke="#555" /><text x="70.00" y="478" font-size="14" text-anchor="middle">18.9%</text><line x1="202.00" y1="450" x2="202.00" y2="458" stroke="#555" /><text x="202.00" y="478" font-size="14" text-anchor="middle">25.5%</text><line x1="334.00" y1="450" x2="334.00" y2="458" stroke="#555" /><text x="334.00" y="478" font-size="14" text-anchor="middle">32.2%</text><line x1="466.00" y1="450" x2="466.00" y2="458" stroke="#555" /><text x="466.00" y="478" font-size="14" text-anchor="middle">38.8%</text><line x1="598.00" y1="450" x2="598.00" y2="458" stroke="#555" /><text x="598.00" y="478" font-size="14" text-anchor="middle">45.5%</text><line x1="730.00" y1="450" x2="730.00" y2="458" stroke="#555" /><text x="730.00" y="478" font-size="14" text-anchor="middle">52.1%</text><line x1="62" y1="450.00" x2="70" y2="450.00" stroke="#555" /><text x="56" y="454.00" font-size="14" text-anchor="end">12.7%</text><line x1="62" y1="374.00" x2="70" y2="374.00" stroke="#555" /><text x="56" y="378.00" font-size="14" text-anchor="end">30.5%</text><line x1="62" y1="298.00" x2="70" y2="298.00" stroke="#555" /><text x="56" y="302.00" font-size="14" text-anchor="end">48.3%</text><line x1="62" y1="222.00" x2="70" y2="222.00" stroke="#555" /><text x="56" y="226.00" font-size="14" text-anchor="end">66.2%</text><line x1="62" y1="146.00" x2="70" y2="146.00" stroke="#555" /><text x="56" y="150.00" font-size="14" text-anchor="end">84.0%</text><line x1="62" y1="70.00" x2="70" y2="70.00" stroke="#555" /><text x="56" y="74.00" font-size="14" text-anchor="end">101.8%</text>
  <text x="400.00" y="40" font-size="22" text-anchor="middle" font-weight="600">Efficient Frontier (Annualized)</text>
</svg>
